<svg width="250" height="360" viewBox="0 0 250 360" xmlns="http://www.w3.org/2000/svg"><title>GraphQL Melbourne</title><g fill="none" fill-rule="evenodd"><path d="M27.082 89V76.346l6.574 7.79h.418l6.574-7.98V89h6.194V62.324l-1.634-.38-11.324 13.072-11.4-13.072-1.634.38V89h6.232zm29.78-5.32v-5.472h9.044v-5.32h-9.044v-5.244h10.944v-5.32H50.592V89H68.11v-5.32H56.862zm30.54 0H77.18V62.324h-6.27V89h16.492v-5.32zm2.8 5.168c16.796 1.9 20.596-2.774 20.596-7.79 0-3.876-3.23-5.738-4.636-5.966.912-.57 3.078-2.394 3.078-5.472 0-8.322-11.096-8.36-19.038-6.992v26.22zm6.308-21.28c2.888-.418 6.422-.152 6.422 2.926 0 1.178-.684 2.128-1.368 2.584H96.51v-5.51zm0 10.336h5.852c.646.228 1.938.836 1.938 2.622 0 2.926-3.914 3.42-7.79 3.002v-5.624zm14.998-2.242c0 7.524 5.852 13.87 14.288 13.87 8.398 0 14.326-6.346 14.326-13.87 0-7.562-5.928-13.87-14.326-13.87-8.436 0-14.288 6.308-14.288 13.87zm6.726 0c0-5.168 3.686-8.246 7.562-8.246 3.838 0 7.6 3.078 7.6 8.246 0 5.168-3.762 8.132-7.6 8.132-3.876 0-7.562-2.964-7.562-8.132zm23.738 2.888c0 5.814 3.724 10.982 11.134 10.982 7.448 0 11.172-5.168 11.172-10.982V62.324h-6.27v16.15c0 3.23-2.166 5.472-4.864 5.472s-4.902-2.242-4.902-5.472v-16.15h-6.27V78.55zm44.904-7.372c0-6.802-6.118-10.868-19.418-8.588V89h6.27v-8.588c1.026 0 1.938 0 2.85-.076L181.404 89h7.6l-6.346-10.45c2.09-1.216 4.218-3.99 4.218-7.372zm-13.148-3.382c4.522-.646 6.688.988 6.688 3.268 0 2.622-1.71 4.294-6.688 3.914v-7.182zm33.238-5.472V75.89l-15.2-13.946-1.482.342V89h6.194V75.358l15.276 14.022 1.406-.38V62.324h-6.194zM223.18 83.68v-5.472h9.044v-5.32h-9.044v-5.244h10.944v-5.32H216.91V89h17.518v-5.32H223.18z" fill="#FF93DC"/><path d="M52.263 35.53H39.808v6.532h4.982V45.4c-1.222 1.268-4.183 2.255-6.392 2.255-6.157 0-10.2-4.042-10.2-10.528 0-5.405 4.137-9.823 9.495-9.823 4.418 0 6.862 2.49 7.943 3.713l4.84-5.593c-2.396-2.303-6.203-5.076-13.112-5.076-9.024 0-17.484 6.768-17.484 16.967 0 9.823 7.144 17.343 18.142 17.343 5.687 0 9.964-1.457 14.288-6.157l-.047-12.97zm27.568-3.573c0-8.413-7.566-13.442-24.016-10.622V54h7.755V43.378c1.268 0 2.396 0 3.524-.094L73.064 54h9.4l-7.85-12.925c2.585-1.504 5.217-4.935 5.217-9.118zm-16.26-4.183c5.592-.8 8.27 1.222 8.27 4.042 0 3.243-2.114 5.31-8.27 4.84v-8.882zM91.135 54l1.833-3.995h12.454L107.257 54h8.6l-15.274-33.276h-2.726L82.44 54h8.696zm8.037-18.47l3.43 8.083h-6.86l3.43-8.084zm42.326-3.103c0-8.648-7.568-13.96-24.018-11.092V54h7.755v-9.588c10.81.235 16.262-4.23 16.262-11.985zm-16.263-4.653c5.734-.658 8.272 1.504 8.272 4.56 0 3.477-1.975 5.498-8.273 5.263v-9.823zM163.097 54h7.756V21.006h-7.755v13.066h-11.28V21.006h-7.755V54h7.755V40.652h11.28V54zm11.024-16.497c0 9.306 7.24 17.155 17.673 17.155 2.96 0 5.734-.658 8.084-1.786L205 58.136l4.982-4.888-4.56-4.653c2.586-3.008 4.09-6.91 4.09-11.092 0-9.353-7.332-17.155-17.72-17.155-10.433 0-17.67 7.802-17.67 17.155zm15.98 5.17l4.325 4.512c-.846.282-1.74.376-2.632.376-4.794 0-9.353-3.665-9.353-10.057s4.56-10.2 9.353-10.2c4.747 0 9.4 3.808 9.4 10.2 0 2.115-.517 3.9-1.363 5.358l-4.84-4.98-4.89 4.793zm43.55 4.747h-12.644V21.006h-7.755V54h20.4v-6.58z" fill="#FFF"/><path stroke="#FF93DC" stroke-width="61" stroke-linecap="round" stroke-linejoin="round" d="M48 271.86V178.13l77.805 51.74L203 177.98v93.557"/><path fill="#FFF" d="M46.17 283.096l-8.008-4.624 89.063-154.257 8.01 4.624z"/><path fill="#FFF" d="M36.246 266.152H214.7v9.232H36.245z"/><path fill="#FFF" d="M129.04 322.827L39.783 271.29l4.615-7.993 89.26 51.536zM206.58 188.758l-89.26-51.536 4.617-7.994 89.26 51.536z"/><path fill="#FFF" d="M44.508 188.683l-4.624-8.01 89.096-51.44 4.624 8.01z"/><path fill="#FFF" d="M204.938 283.235l-89.226-154.54 7.994-4.616 89.226 154.54zM43.32 174.56h9.25V277.44h-9.25z"/><path fill="#FFF" d="M198.43 174.56h9.25V277.44h-9.25z"/><path fill="#FFF" d="M127.533 318.88l-4.04-6.997 77.49-44.74 4.04 6.996z"/><g fill="#FFF"><path d="M219.936 280.444c-5.35 9.288-17.272 12.458-26.576 7.12-9.304-5.34-12.48-17.24-7.13-26.528 5.347-9.288 17.27-12.457 26.574-7.12 9.36 5.396 12.536 17.24 7.132 26.528M64.716 190.964c-5.35 9.288-17.272 12.457-26.576 7.12-9.304-5.34-12.48-17.24-7.13-26.528 5.347-9.288 17.27-12.458 26.574-7.12 9.305 5.396 12.48 17.24 7.132 26.528M31.064 280.444c-5.348-9.287-2.173-21.132 7.132-26.527 9.304-5.338 21.17-2.17 26.575 7.12 5.35 9.286 2.174 21.13-7.13 26.526-9.36 5.34-21.227 2.17-26.576-7.12M186.284 190.964c-5.348-9.287-2.173-21.132 7.132-26.527 9.304-5.34 21.17-2.17 26.575 7.12 5.35 9.286 2.174 21.13-7.13 26.526-9.304 5.338-21.227 2.17-26.576-7.12M125.5 334.89c-10.753 0-19.444-8.677-19.444-19.41s8.69-19.41 19.444-19.41c10.753 0 19.444 8.677 19.444 19.41 0 10.678-8.69 19.41-19.444 19.41M125.5 155.93c-10.753 0-19.444-8.677-19.444-19.41s8.69-19.41 19.444-19.41c10.753 0 19.444 8.677 19.444 19.41s-8.69 19.41-19.444 19.41"/></g></g></svg>